<svg xmlns="http://www.w3.org/2000/svg" xmlns:xlink="http://www.w3.org/1999/xlink" id="Capa_1" x="0px" y="0px" viewBox="0 0 1920 941" style="enable-background:new 0 0 1920 941;" xml:space="preserve"><style type="text/css">	.st0{fill:#003C66;}</style><g>	<g>		<g>			<g>				<g>					<g>						<path class="st0" d="M69.03,783.68c8.95-8.95,21.31-13.34,37.09-13.34c4.39,0,7.97,0.32,10.74,0.97       c2.77,0.65,6.18,1.63,10.25,2.93c2.76,1.14,5.2,1.79,7.32,2.28c2.11,0.49,4.39,0.81,6.83,0.81c-0.49,3.42-0.65,7.48-0.65,12.2       c0,2.28,0,4.23,0.16,6.02s0.33,2.93,0.49,3.09h-5.21c-1.3-6.34-4.55-11.87-9.92-16.43c-5.37-4.39-11.22-6.67-17.73-6.67       c-8.95,0-15.94,3.91-20.82,11.71c-5.04,7.97-7.48,19.2-7.48,33.84c0,13.99,2.6,24.73,7.81,32.37       c5.2,7.64,12.2,11.55,21.15,11.55c6.83,0,12.85-2.28,18.06-6.67c5.04-4.39,8.3-9.76,9.76-16.43h5.85       c-0.65,5.37-0.97,9.92-0.97,13.83c0,3.09,0.16,5.7,0.49,7.65h-0.98c-1.95,0-3.9,0.16-6.02,0.65c-2.11,0.49-4.88,1.3-8.3,2.44       c-4.88,1.46-8.79,2.44-11.71,3.25c-3.09,0.65-6.34,0.98-9.92,0.98c-10.25,0-19.03-1.95-26.52-6.02       c-7.48-4.07-13.18-9.76-17.24-17.24c-4.07-7.32-6.02-16.11-6.02-26.35C55.53,804.99,60.08,792.62,69.03,783.68z"></path>						<path class="st0" d="M211.53,806.29c5.86,5.37,8.79,13.02,8.95,22.94l0,6.02h-46.85c0,9.27,1.79,16.43,5.2,21.31       c3.42,4.88,8.46,7.32,15.29,7.48c5.04,0,9.43-1.3,13.18-3.91c3.74-2.44,6.35-5.53,8.14-9.27l4.39,3.09       c-2.44,5.37-6.51,9.44-12.2,12.36c-5.69,2.93-12.52,4.39-20.17,4.39c-24.4,0-36.6-12.04-36.6-35.95       c0-12.53,3.09-21.63,9.27-27.65c6.18-5.86,15.46-8.79,27.66-8.79C197.7,798.32,205.51,800.92,211.53,806.29z M177.04,811.01       c-2.11,4.88-3.25,11.22-3.25,18.87h21.63c1.14,0,1.95-0.33,2.44-1.14c0.49-0.81,0.81-2.11,0.81-4.23       c0-6.99-0.81-12.2-2.6-15.62c-1.79-3.42-4.72-5.04-8.78-5.04C182.57,803.85,179.16,806.29,177.04,811.01z"></path>						<path class="st0" d="M309.62,869.08h-37.09v-5.53l6.18,0.32c1.46-0.32,2.11-1.3,2.11-3.09v-39.37c0-5.69-0.49-9.6-1.3-12.04       c-0.97-2.28-3.09-3.42-6.34-3.42c-4.23,0-8.14,2.6-11.88,7.97c-3.74,5.37-5.53,13.01-5.53,22.94l0,23.91       c0,2.12,0.65,3.09,2.12,3.09l6.34-0.32v5.53h-37.25v-5.53l5.37,0.32c1.46-0.32,2.12-1.3,2.12-3.09l0-52.54       c0-1.79-0.65-2.93-2.12-3.26l-5.37,0.33v-5.37h29.61c-0.49,1.63-0.81,3.58-0.81,5.69v9.11c2.44-5.2,5.7-9.27,10.09-12.2       c4.23-2.76,9.27-4.23,15.13-4.23c7.32,0,12.69,1.79,16.1,5.53c3.41,3.74,5.04,9.76,5.04,17.73v39.2       c0,2.12,0.65,3.09,2.11,3.09l5.37-0.32V869.08z"></path>						<path class="st0" d="M360.21,799.94v5.21H344.1l0,49.78c0,3.74,0.49,6.34,1.47,7.64c0.97,1.3,2.44,1.95,4.55,1.95       c1.3,0,2.77-0.65,4.23-1.79c1.47-1.14,2.44-2.6,3.25-4.56l4.39,2.44c-2.44,6.67-8.46,9.92-17.9,9.92       c-6.67,0-11.87-1.3-15.62-3.9c-3.74-2.44-5.69-6.51-5.69-12.04l0-49.45h-9.76v-5.21c4.39,0,7.64-0.49,9.92-1.3       c2.28-0.81,4.07-2.28,5.53-4.55c1.3-2.28,2.6-5.86,3.74-10.74h11.87v16.59H360.21z"></path>						<path class="st0" d="M427.07,802.38c2.93,2.77,4.39,6.18,4.39,10.57c0,3.26-0.98,5.7-2.77,7.32       c-1.95,1.63-4.23,2.44-6.99,2.44c-2.28,0-4.23-0.65-6.02-1.79c-1.79-1.14-2.77-2.76-2.77-4.88c0-0.81,0.16-1.95,0.65-3.41       c0.33-1.95,0.49-3.09,0.49-3.25c0-2.44-0.97-3.58-3.09-3.58c-2.76,0-5.37,1.63-7.48,4.72c-2.28,3.26-4.07,7.32-5.2,12.04       c-1.14,4.72-1.79,9.43-1.95,13.83v24.4c0,2.12,0.65,3.09,2.12,3.09l11.22-0.32v5.53l-41.32,0v-5.53l4.55,0.32       c1.46,0,2.12-0.97,2.12-3.09v-52.54c0-2.12-0.65-3.26-2.12-3.26l-5.2,0.33v-5.37h29.61c-0.16,0.65-0.49,1.63-0.65,3.09       c-0.16,1.47-0.33,2.93-0.33,4.39v7.48c3.91-11.06,10.25-16.59,19.2-16.59C420.23,798.32,423.98,799.62,427.07,802.38z"></path>						<path class="st0" d="M443.33,807.59c6.02-6.18,15.13-9.27,27.33-9.27c12.2,0,21.31,3.09,27.33,9.27       c6.02,6.18,8.95,15.13,8.95,26.84c0,24.24-12.04,36.28-36.28,36.28c-12.2,0-21.31-3.09-27.33-9.27       c-6.02-6.18-9.11-15.13-9.11-27.01C434.22,822.72,437.32,813.77,443.33,807.59z M460.25,858.02       c2.11,4.72,5.53,6.99,10.41,6.99s8.3-2.28,10.41-6.83c2.11-4.55,3.09-12.36,3.09-23.42c0-11.22-0.98-19.19-3.09-23.91       c-2.12-4.72-5.53-7-10.41-7c-4.88,0-8.3,2.28-10.41,7c-2.12,4.72-3.25,12.69-3.25,23.91       C457,845.66,458.14,853.46,460.25,858.02z"></path>						<path class="st0" d="M592.18,771.96v6.02l-7.97-0.32h-0.32c-0.81,0-1.63,0.32-2.12,0.97c-0.49,0.65-0.81,1.47-0.81,2.28       l0,55.8c0,9.27,2.12,16.1,6.51,20.5c4.23,4.55,10.41,6.83,18.54,6.83c8.3,0,14.48-2.44,18.38-7.48       c3.74-5.04,5.69-11.88,5.69-20.5v-54.98c0-1.14-0.32-1.95-0.81-2.6c-0.49-0.65-1.3-0.98-2.11-0.81l-7.97,0.32v-6.02h27.49       v6.02l-6.34-0.32h-0.32c-0.81,0-1.63,0.32-2.12,0.97c-0.49,0.65-0.81,1.47-0.81,2.28v55.15c0,10.9-2.93,19.52-8.79,25.54       c-5.85,6.02-14.64,9.11-26.52,9.11c-28.79,0-43.27-11.39-43.27-34v-55.64c0-0.97-0.32-1.79-0.81-2.6       c-0.65-0.65-1.46-0.98-2.28-0.81l-6.18,0.32v-6.02H592.18z"></path>						<path class="st0" d="M736.63,869.08h-37.09v-5.53l6.18,0.32c1.46-0.32,2.11-1.3,2.11-3.09v-39.37c0-5.69-0.49-9.6-1.3-12.04       c-0.97-2.28-3.09-3.42-6.34-3.42c-4.23,0-8.14,2.6-11.88,7.97c-3.74,5.37-5.53,13.01-5.53,22.94v23.91       c0,2.12,0.65,3.09,2.12,3.09l6.34-0.32v5.53h-37.25v-5.53l5.37,0.32c1.46-0.32,2.12-1.3,2.12-3.09v-52.54       c0-1.79-0.65-2.93-2.12-3.26l-5.37,0.33v-5.37h29.61c-0.49,1.63-0.81,3.58-0.81,5.69v9.11c2.44-5.2,5.7-9.27,10.09-12.2       c4.23-2.76,9.27-4.23,15.13-4.23c7.32,0,12.69,1.79,16.1,5.53c3.41,3.74,5.04,9.76,5.04,17.73l0,39.2       c0,2.12,0.65,3.09,2.11,3.09l5.37-0.32V869.08z"></path>						<path class="st0" d="M772.58,863.87l5.37-0.32v5.53h-36.28v-5.53l5.7,0.32c1.14,0,1.79-0.97,1.79-3.09v-52.54       c0-1.79-0.65-2.93-1.95-3.26l-5.37,0.33v-5.37h28.63v60.84C770.46,862.9,771.11,864.04,772.58,863.87z M768.51,764.97       c2.28,1.79,3.42,4.23,3.42,7.32s-1.14,5.69-3.42,7.48c-2.44,1.79-5.37,2.77-9.11,2.77s-6.67-0.98-8.95-2.77       c-2.44-1.79-3.58-4.39-3.58-7.48c0-3.09,1.14-5.53,3.58-7.32c2.28-1.79,5.2-2.77,8.95-2.77S766.07,763.18,768.51,764.97z"></path>						<path class="st0" d="M857.01,805.31l-5.7-0.33c-1.46,0-2.6,0.81-3.25,2.44l-25.54,62.47h-9.92l-25.05-62.79       c-0.16-0.65-0.65-1.14-1.3-1.63c-0.65-0.49-1.3-0.65-1.95-0.49l-5.2,0.33v-5.37h40.83v5.37l-6.67-0.33       c-0.81,0-1.46,0.33-2.11,0.98c-0.65,0.65-0.81,1.46-0.33,2.28l15.62,37.58l14.97-38.23c0.16-0.49,0.33-0.81,0.33-1.3       c0-0.97-0.49-1.46-1.63-1.3l-6.67,0.33v-5.37h23.59V805.31z"></path>						<path class="st0" d="M917.84,806.29c5.86,5.37,8.79,13.02,8.95,22.94v6.02h-46.85c0,9.27,1.79,16.43,5.2,21.31       s8.46,7.32,15.29,7.48c5.04,0,9.43-1.3,13.18-3.91c3.74-2.44,6.35-5.53,8.14-9.27l4.39,3.09c-2.44,5.37-6.51,9.44-12.2,12.36       c-5.69,2.93-12.52,4.39-20.17,4.39c-24.4,0-36.6-12.04-36.6-35.95c0-12.53,3.09-21.63,9.27-27.65       c6.18-5.86,15.46-8.79,27.66-8.79C904.01,798.32,911.82,800.92,917.84,806.29z M883.35,811.01       c-2.11,4.88-3.25,11.22-3.25,18.87h21.63c1.14,0,1.95-0.33,2.44-1.14c0.49-0.81,0.81-2.11,0.81-4.23       c0-6.99-0.81-12.2-2.6-15.62c-1.79-3.42-4.72-5.04-8.78-5.04C888.88,803.85,885.47,806.29,883.35,811.01z"></path>						<path class="st0" d="M992.83,802.38c2.93,2.77,4.39,6.18,4.39,10.57c0,3.26-0.98,5.7-2.77,7.32       c-1.95,1.63-4.23,2.44-6.99,2.44c-2.28,0-4.23-0.65-6.02-1.79c-1.79-1.14-2.77-2.76-2.77-4.88c0-0.81,0.16-1.95,0.65-3.41       c0.33-1.95,0.49-3.09,0.49-3.25c0-2.44-0.97-3.58-3.09-3.58c-2.76,0-5.37,1.63-7.48,4.72c-2.28,3.26-4.07,7.32-5.2,12.04       c-1.14,4.72-1.79,9.43-1.95,13.83l0,24.4c0,2.12,0.65,3.09,2.12,3.09l11.22-0.32v5.53h-41.32v-5.53l4.55,0.32       c1.46,0,2.12-0.97,2.12-3.09l0-52.54c0-2.12-0.65-3.26-2.12-3.26l-5.2,0.33v-5.37h29.61c-0.16,0.65-0.49,1.63-0.65,3.09       c-0.16,1.47-0.33,2.93-0.33,4.39v7.48c3.91-11.06,10.25-16.59,19.2-16.59C986,798.32,989.74,799.62,992.83,802.38z"></path>						<path class="st0" d="M1010.23,845.66c0,5.53,2.28,10.08,6.99,13.83c4.56,3.74,10.09,5.53,16.59,5.53       c3.58,0,6.51-0.81,8.62-2.6c2.12-1.63,3.09-3.9,3.09-6.99c0-2.44-0.81-4.56-2.28-6.02c-1.63-1.47-4.39-2.6-8.14-3.58       l-11.71-3.25c-6.34-1.79-10.9-4.39-13.83-7.97c-3.09-3.58-4.56-8.14-4.56-13.67c0-6.67,2.28-12.2,7-16.43       c4.72-4.07,11.22-6.18,19.68-6.18c2.28,0,4.39,0.16,6.18,0.49c1.79,0.33,4.07,0.81,6.83,1.63c3.42,0.97,6.18,1.46,8.13,1.46       c1.79,0,3.42-0.49,4.88-1.3l-0.97,18.54h-4.88c0-4.07-1.63-7.64-5.04-10.74c-3.41-3.09-8.13-4.56-13.99-4.56       c-3.42,0-6.02,0.81-7.97,2.44c-2.12,1.79-3.09,3.91-3.09,6.35c0,4.23,2.93,7.16,8.95,8.62l11.22,2.93       c7.48,1.95,12.69,4.72,15.46,8.3c2.76,3.58,4.07,8.14,4.07,13.83c0,7.64-2.6,13.66-7.81,17.89       c-5.21,4.39-12.04,6.51-20.66,6.51c-2.44,0-5.04-0.16-7.48-0.65c-2.6-0.49-6.67-1.47-12.04-2.93       c-1.79-0.49-3.25-0.65-4.55-0.65c-2.44,0-4.07,0.32-5.04,0.97l0.81-21.47L1010.23,845.66z"></path>						<path class="st0" d="M1099.87,863.87l5.37-0.32v5.53h-36.28v-5.53l5.7,0.32c1.14,0,1.79-0.97,1.79-3.09v-52.54       c0-1.79-0.65-2.93-1.95-3.26l-5.37,0.33v-5.37h28.63v60.84C1097.75,862.9,1098.4,864.04,1099.87,863.87z M1095.8,764.97       c2.28,1.79,3.42,4.23,3.42,7.32c0,3.09-1.14,5.69-3.42,7.48c-2.44,1.79-5.37,2.77-9.11,2.77c-3.74,0-6.67-0.98-8.95-2.77       c-2.44-1.79-3.58-4.39-3.58-7.48s1.14-5.53,3.58-7.32c2.28-1.79,5.2-2.77,8.95-2.77       C1090.43,762.2,1093.36,763.18,1095.8,764.97z"></path>						<path class="st0" d="M1157.29,799.94v5.21h-16.11v49.78c0,3.74,0.49,6.34,1.47,7.64c0.97,1.3,2.44,1.95,4.55,1.95       c1.3,0,2.77-0.65,4.23-1.79c1.47-1.14,2.44-2.6,3.25-4.56l4.39,2.44c-2.44,6.67-8.46,9.92-17.9,9.92       c-6.67,0-11.87-1.3-15.62-3.9c-3.74-2.44-5.69-6.51-5.69-12.04v-49.45h-9.76v-5.21c4.39,0,7.64-0.49,9.92-1.3       s4.07-2.28,5.53-4.55c1.3-2.28,2.6-5.86,3.74-10.74h11.87v16.59H1157.29z"></path>						<path class="st0" d="M1235.53,869.08h-29.61c0.49-2.6,0.65-4.55,0.65-6.02l0.16-4.07c-4.72,7.81-12.2,11.71-22.45,11.71       c-6.83,0-12.04-1.47-15.45-4.72c-3.58-3.09-5.37-7.65-5.37-13.66c0-7.97,3.42-13.83,10.41-17.57c7-3.74,17.9-5.69,32.86-5.69       v-12.2c0-4.07-0.65-7.32-2.11-9.6c-1.47-2.28-4.39-3.42-8.79-3.42c-6.99,0-10.41,2.28-10.41,6.83c0,1.46,0.33,2.76,0.81,3.9       c0.49,1.3,0.65,2.28,0.65,2.93c0,2.44-0.81,4.23-2.44,5.53c-1.79,1.3-3.91,1.95-6.51,1.95c-3.09,0-5.53-0.98-7.32-2.77       c-1.95-1.79-2.93-3.9-2.93-6.67c0-5.21,2.77-9.44,8.14-12.53c5.37-3.09,12.69-4.72,21.96-4.72c20.17,0,30.26,7.16,30.26,21.64       v40.83c0,2.12,0.65,3.09,2.11,3.09l5.37-0.32V869.08z M1202.35,856.07c2.44-2.77,3.9-6.35,4.39-11.06v-10.25       c-7.32,0-12.69,1.3-16.1,3.9c-3.42,2.6-5.04,6.51-5.04,11.71c0,7.16,2.6,10.41,7.97,9.92       C1196.98,860.3,1199.91,858.83,1202.35,856.07z"></path>						<path class="st0" d="M1300.11,802.38c2.93,2.77,4.39,6.18,4.39,10.57c0,3.26-0.98,5.7-2.77,7.32       c-1.95,1.63-4.23,2.44-6.99,2.44c-2.28,0-4.23-0.65-6.02-1.79c-1.79-1.14-2.77-2.76-2.77-4.88c0-0.81,0.16-1.95,0.65-3.41       c0.33-1.95,0.49-3.09,0.49-3.25c0-2.44-0.97-3.58-3.09-3.58c-2.76,0-5.37,1.63-7.48,4.72c-2.28,3.26-4.07,7.32-5.2,12.04       c-1.14,4.72-1.79,9.43-1.95,13.83v24.4c0,2.12,0.65,3.09,2.12,3.09l11.22-0.32v5.53h-41.32v-5.53l4.55,0.32       c1.46,0,2.12-0.97,2.12-3.09v-52.54c0-2.12-0.65-3.26-2.12-3.26l-5.2,0.33l0-5.37h29.61c-0.16,0.65-0.49,1.63-0.65,3.09       c-0.16,1.47-0.33,2.93-0.33,4.39v7.48c3.91-11.06,10.25-16.59,19.2-16.59C1293.28,798.32,1297.02,799.62,1300.11,802.38z"></path>						<path class="st0" d="M1339.64,863.87l5.37-0.32v5.53h-36.28v-5.53l5.7,0.32c1.14,0,1.79-0.97,1.79-3.09v-52.54       c0-1.79-0.65-2.93-1.95-3.26l-5.37,0.33v-5.37l28.63,0v60.84C1337.52,862.9,1338.17,864.04,1339.64,863.87z M1335.57,764.97       c2.28,1.79,3.42,4.23,3.42,7.32c0,3.09-1.14,5.69-3.42,7.48c-2.44,1.79-5.37,2.77-9.11,2.77c-3.74,0-6.67-0.98-8.95-2.77       c-2.44-1.79-3.58-4.39-3.58-7.48c0-3.09,1.14-5.53,3.58-7.32c2.28-1.79,5.2-2.77,8.95-2.77       C1330.2,762.2,1333.13,763.18,1335.57,764.97z"></path>						<path class="st0" d="M1360.62,807.59c6.02-6.18,15.13-9.27,27.33-9.27s21.31,3.09,27.33,9.27c6.02,6.18,8.95,15.13,8.95,26.84       c0,24.24-12.04,36.28-36.28,36.28c-12.2,0-21.31-3.09-27.33-9.27c-6.02-6.18-9.11-15.13-9.11-27.01       C1351.51,822.72,1354.6,813.77,1360.62,807.59z M1377.54,858.02c2.11,4.72,5.53,6.99,10.41,6.99c4.88,0,8.3-2.28,10.41-6.83       c2.11-4.55,3.09-12.36,3.09-23.42c0-11.22-0.98-19.19-3.09-23.91c-2.12-4.72-5.53-7-10.41-7c-4.88,0-8.3,2.28-10.41,7       c-2.12,4.72-3.25,12.69-3.25,23.91C1374.29,845.66,1375.42,853.47,1377.54,858.02z"></path>						<path class="st0" d="M1473.19,863.39c1.79,0,2.77-1.14,2.77-3.58v-78.74c0-0.97-0.33-1.79-0.81-2.6       c-0.49-0.65-1.3-0.98-2.28-0.81l-5.7,0.32v-6.02h40.18v6.02l-5.69-0.32h-0.33c-0.81,0-1.63,0.32-2.11,0.97       c-0.49,0.65-0.81,1.47-0.81,2.44v78.74c0,2.6,1.14,3.74,3.26,3.58l5.69-0.33v6.02h-40.18v-6.02L1473.19,863.39z"></path>						<path class="st0" d="M1599.59,869.08l-37.09,0v-5.53l6.18,0.32c1.46-0.32,2.11-1.3,2.11-3.09v-39.37       c0-5.69-0.49-9.6-1.3-12.04c-0.97-2.28-3.09-3.42-6.34-3.42c-4.23,0-8.14,2.6-11.88,7.97c-3.74,5.37-5.53,13.01-5.53,22.94       v23.91c0,2.12,0.65,3.09,2.12,3.09l6.34-0.32v5.53h-37.25v-5.53l5.37,0.32c1.46-0.32,2.12-1.3,2.12-3.09v-52.54       c0-1.79-0.65-2.93-2.12-3.26l-5.37,0.33v-5.37l29.61,0c-0.49,1.63-0.81,3.58-0.81,5.69v9.11c2.44-5.2,5.7-9.27,10.09-12.2       c4.23-2.76,9.27-4.23,15.13-4.23c7.32,0,12.69,1.79,16.1,5.53c3.41,3.74,5.04,9.76,5.04,17.73v39.2       c0,2.12,0.65,3.09,2.11,3.09l5.37-0.32V869.08z"></path>						<path class="st0" d="M1664.82,837.2c-5.7,4.07-13.5,6.02-23.26,6.02c-4.56,0-8.79-0.49-12.85-1.47       c-2.28,1.95-3.42,3.91-3.42,6.02c0,3.42,3.09,5.21,9.43,5.21h16.11c9.92,0,17.41,1.95,22.61,5.69       c5.2,3.9,7.81,10.08,7.81,18.71c0,9.92-3.74,17.57-11.22,23.26c-7.48,5.53-17.57,8.3-30.42,8.3       c-10.25,0-18.22-1.63-23.91-5.04c-5.69-3.42-8.46-8.46-8.46-14.8c0-7.97,5.37-14.48,16.27-19.2       c-9.27-2.11-13.99-6.51-13.99-13.01c0-2.28,0.49-4.39,1.63-6.18s3.09-4.07,6.02-6.67l5.04-4.39       c-8.62-3.74-12.85-9.92-12.85-18.54c0-7.16,2.93-12.69,8.95-16.76c5.85-4.07,13.66-6.02,23.42-6.02       c11.06,0,19.19,2.12,24.24,6.51c5.04,4.39,7.48,9.76,7.48,15.78C1673.44,827.76,1670.51,833.29,1664.82,837.2z        M1624.96,877.38c-1.79,3.09-2.77,6.51-2.77,10.25c0,5.04,1.46,8.95,4.55,11.71c3.09,2.77,7.81,4.23,14.15,4.23       c6.99,0,12.52-1.79,16.59-5.53c4.07-3.74,6.02-8.46,6.02-14.48c0-4.39-1.14-7.48-3.58-9.6c-2.44-2.11-6.18-3.09-11.55-3.09       l-16.27,0C1629.19,872.01,1626.75,874.12,1624.96,877.38z M1649.36,834.27c1.47-2.6,2.28-6.99,2.28-13.18       s-0.81-10.58-2.28-13.34c-1.63-2.6-4.39-3.91-8.13-3.91c-3.74,0-6.34,1.3-7.81,3.74c-1.46,2.6-2.28,7.16-2.28,13.66       c0,6.34,0.81,10.9,2.28,13.34c1.47,2.44,3.91,3.74,7.65,3.74C1644.97,838.34,1647.74,837.03,1649.36,834.27z M1668.56,791.48       c-1.79-1.14-2.6-2.6-2.6-4.55c0-4.88,2.6-7.32,7.65-7.32c5.69,0,8.62,3.25,8.62,9.6c0,10.41-5.86,16.27-17.41,17.41       l-7.32-6.18c3.58,1.14,6.83,1.3,9.6,0.49c2.77-0.81,4.07-2.6,4.07-5.7C1671.16,793.76,1670.35,792.62,1668.56,791.48z"></path>						<path class="st0" d="M1693.12,863.87c1.46-0.32,2.12-1.3,2.12-3.09V758.46c0-1.79-0.65-2.93-1.95-3.41l-5.37,0.32v-5.2h28.63       v110.62c0,2.12,0.65,3.26,2.12,3.09l5.37-0.32v5.53h-36.28v-5.53L1693.12,863.87z"></path>						<path class="st0" d="M1791.21,806.29c5.86,5.37,8.79,13.02,8.95,22.94v6.02h-46.85c0,9.27,1.79,16.43,5.21,21.31       c3.42,4.88,8.46,7.32,15.29,7.48c5.04,0,9.43-1.3,13.18-3.91c3.74-2.44,6.35-5.53,8.14-9.27l4.39,3.09       c-2.44,5.37-6.51,9.44-12.2,12.36c-5.69,2.93-12.52,4.39-20.17,4.39c-24.4,0-36.6-12.04-36.6-35.95       c0-12.53,3.09-21.63,9.27-27.65c6.18-5.86,15.46-8.79,27.66-8.79C1777.38,798.32,1785.19,800.92,1791.21,806.29z        M1756.72,811.01c-2.11,4.88-3.25,11.22-3.25,18.87h21.64c1.14,0,1.95-0.33,2.44-1.14c0.49-0.81,0.81-2.11,0.81-4.23       c0-6.99-0.81-12.2-2.6-15.62c-1.79-3.42-4.72-5.04-8.78-5.04C1762.25,803.85,1758.84,806.29,1756.72,811.01z M1787.63,771.8       l-27.17,16.59c-1.46,0.81-2.76,1.3-3.9,1.47c-1.14,0-1.79-0.49-1.79-1.63s0.81-2.6,2.6-4.39l15.45-16.92       c1.63-1.79,2.77-2.93,3.42-3.41c0.49-0.49,1.3-0.65,2.44-0.65c1.95,0,4.23,0.65,6.99,2.11c2.77,1.46,4.07,2.77,4.07,3.9       C1789.74,769.69,1789.09,770.66,1787.63,771.8z"></path>						<path class="st0" d="M1815.44,845.66c0,5.53,2.28,10.08,6.99,13.83c4.56,3.74,10.09,5.53,16.59,5.53       c3.58,0,6.51-0.81,8.62-2.6c2.12-1.63,3.09-3.9,3.09-6.99c0-2.44-0.81-4.56-2.28-6.02c-1.63-1.47-4.39-2.6-8.14-3.58       l-11.71-3.25c-6.34-1.79-10.9-4.39-13.83-7.97c-3.09-3.58-4.56-8.14-4.56-13.67c0-6.67,2.28-12.2,7-16.43       c4.72-4.07,11.22-6.18,19.68-6.18c2.28,0,4.39,0.16,6.18,0.49c1.79,0.33,4.07,0.81,6.83,1.63c3.42,0.97,6.18,1.46,8.13,1.46       c1.79,0,3.42-0.49,4.88-1.3l-0.97,18.54h-4.88c0-4.07-1.63-7.64-5.04-10.74c-3.41-3.09-8.13-4.56-13.99-4.56       c-3.42,0-6.02,0.81-7.97,2.44c-2.12,1.79-3.09,3.91-3.09,6.35c0,4.23,2.93,7.16,8.95,8.62l11.22,2.93       c7.48,1.95,12.69,4.72,15.46,8.3c2.76,3.58,4.07,8.14,4.07,13.83c0,7.64-2.6,13.66-7.81,17.89       c-5.21,4.39-12.04,6.51-20.66,6.51c-2.44,0-5.04-0.16-7.48-0.65c-2.6-0.49-6.67-1.47-12.04-2.93       c-1.79-0.49-3.25-0.65-4.55-0.65c-2.44,0-4.07,0.32-5.04,0.97l0.81-21.47L1815.44,845.66z"></path>					</g>				</g>				<g>					<g>						<g>							<path class="st0" d="M843.28,198.58c40.04-40.04,95.36-59.69,165.98-59.69c19.66,0,35.67,1.46,48.05,4.37        c12.38,2.91,27.66,7.28,45.86,13.1c12.38,5.1,23.29,8.01,32.76,10.19c9.46,2.18,19.66,3.64,30.57,3.64        c-2.18,15.29-2.91,33.49-2.91,54.6c0,10.19,0,18.93,0.73,26.93c0.73,8.01,1.46,13.1,2.18,13.83h-23.29        c-5.82-28.39-20.38-53.14-44.41-73.52c-24.02-19.66-50.23-29.85-79.35-29.85c-40.04,0-71.34,17.47-93.18,52.41        c-22.57,35.67-33.49,85.9-33.49,151.42c0,62.6,11.65,110.65,34.94,144.86c23.29,34.21,54.6,51.69,94.64,51.69        c30.57,0,57.51-10.19,80.8-29.85c22.57-19.66,37.13-43.68,43.68-73.52l26.21,0c-2.91,24.02-4.37,44.41-4.37,61.88        c0,13.83,0.73,25.48,2.18,34.21h-4.37c-8.74,0-17.47,0.73-26.93,2.91s-21.84,5.82-37.13,10.92        c-21.84,6.55-39.31,10.92-52.41,14.56c-13.83,2.91-28.39,4.37-44.41,4.37c-45.86,0-85.17-8.74-118.66-26.93        c-33.49-18.2-58.97-43.68-77.16-77.16c-18.2-32.76-26.93-72.07-26.93-117.93C782.86,293.94,803.24,238.61,843.28,198.58z"></path>							<path class="st0" d="M1408.94,146.16v26.93l-35.67-1.46h-1.46c-3.64,0-7.28,1.46-9.46,4.37c-2.18,2.91-3.64,6.55-3.64,10.19        l0,249.69c0,41.49,9.46,72.07,29.12,91.72c18.93,20.38,46.59,30.57,82.99,30.57c37.13,0,64.79-10.92,82.26-33.49        c16.74-22.57,25.48-53.14,25.48-91.72l0-246.05c0-5.1-1.46-8.74-3.64-11.65c-2.18-2.91-5.82-4.37-9.46-3.64l-35.67,1.46        l0-26.93l123.03,0v26.93l-28.39-1.46h-1.46c-3.64,0-7.28,1.46-9.46,4.37c-2.18,2.91-3.64,6.55-3.64,10.19l0,246.78        c0,48.77-13.1,87.36-39.31,114.29c-26.21,26.93-65.52,40.77-118.66,40.77c-128.85,0-193.64-50.96-193.64-152.14l0-248.96        c0-4.37-1.46-8.01-3.64-11.65c-2.91-2.91-6.55-4.37-10.19-3.64l-27.66,1.46v-26.93L1408.94,146.16z"></path>							<path class="st0" d="M1714.72,555.28c8.01,0,12.38-5.1,12.38-16.02l0-352.33c0-4.37-1.46-8.01-3.64-11.65        c-2.18-2.91-5.82-4.37-10.19-3.64l-25.48,1.46v-26.93l179.81,0v26.93l-25.48-1.46h-1.46c-3.64,0-7.28,1.46-9.46,4.37        c-2.18,2.91-3.64,6.55-3.64,10.92v352.33c0,11.65,5.1,16.74,14.56,16.02l25.48-1.46v26.93l-179.81,0v-26.93L1714.72,555.28z"></path>						</g>					</g>				</g>			</g>			<g>				<path class="st0" d="M382.8,692.86c-182.18,0-330.4-148.22-330.4-330.4s148.22-330.4,330.4-330.4     c182.18,0,330.4,148.22,330.4,330.4S564.99,692.86,382.8,692.86z M382.8,49.84c-172.38,0-312.63,140.24-312.63,312.62     S210.42,675.09,382.8,675.09s312.63-140.24,312.63-312.62S555.19,49.84,382.8,49.84z"></path>				<path class="st0" d="M382.8,664.7c-166.65,0-302.24-135.58-302.24-302.24S216.15,60.23,382.8,60.23     c166.65,0,302.24,135.58,302.24,302.24C685.04,529.12,549.46,664.7,382.8,664.7z M382.8,68.31     c-162.2,0-294.16,131.96-294.16,294.16c0,162.2,131.96,294.16,294.16,294.16s294.16-131.96,294.16-294.16S545,68.31,382.8,68.31     z"></path>				<path class="st0" d="M382.8,592.65c-126.92,0-230.18-103.26-230.18-230.18c0-126.92,103.26-230.18,230.18-230.18     c126.92,0,230.18,103.26,230.18,230.18S509.73,592.65,382.8,592.65z M382.8,140.36c-122.47,0-222.1,99.64-222.1,222.1     c0,122.47,99.64,222.1,222.1,222.1c122.47,0,222.1-99.64,222.1-222.1C604.91,240,505.27,140.36,382.8,140.36z"></path>				<g>					<path class="st0" d="M512.95,452.57c1.16-3.66,2.21-7.36,3.07-11.15c0.27-1.19,0.47-2.4,0.71-3.61      c0.68-3.4,1.25-6.85,1.68-10.34c0.16-1.34,0.3-2.69,0.42-4.04c0.17-1.86,0.36-3.73,0.46-5.61c0.07-1.3,0.04-2.58,0.07-3.88      c0.03-1.47,0.09-2.95,0.08-4.42c-0.03-2.9-0.15-5.78-0.34-8.64c-0.03-0.43-0.03-0.86-0.06-1.28c-0.09-1.16-0.27-2.28-0.39-3.43      c-0.27-2.62-0.55-5.24-0.96-7.82c-0.26-1.66-0.61-3.3-0.93-4.94c-0.46-2.36-0.97-4.71-1.55-7.03      c-0.43-1.72-0.87-3.43-1.36-5.12c-0.62-2.12-1.32-4.2-2.03-6.28c-0.6-1.75-1.16-3.51-1.83-5.23c-0.74-1.89-1.58-3.73-2.39-5.59      c-0.78-1.76-1.56-3.51-2.41-5.23c-0.83-1.68-1.68-3.34-2.58-4.99c-0.95-1.75-1.95-3.46-2.96-5.16      c-0.89-1.49-1.77-2.99-2.71-4.45c-1.11-1.71-2.31-3.37-3.5-5.03c-0.92-1.28-1.79-2.61-2.75-3.86c0.42,1.65,0.76,3.33,1.12,5.01      c0.48,2.27,0.91,4.57,1.28,6.88c0.26,1.63,0.51,3.27,0.71,4.92c0.29,2.34,0.53,4.68,0.7,7.05c0.11,1.57,0.19,3.15,0.26,4.73      c0.02,0.6,0.08,1.2,0.1,1.81c0.05,1.78-0.04,3.59-0.05,5.39c-0.01,1.48,0.02,2.96-0.04,4.46c-0.02,0.54,0.01,1.06-0.01,1.6      c-0.1,1.9-0.34,3.75-0.52,5.62c-0.13,1.41-0.22,2.84-0.39,4.24c-0.3,2.43-0.73,4.81-1.15,7.19c-0.24,1.34-0.41,2.7-0.69,4.03      c-0.5,2.4-1.13,4.74-1.75,7.09c-0.34,1.27-0.6,2.58-0.97,3.84c-0.69,2.34-1.51,4.62-2.31,6.91c-0.35,0.98-0.63,2-0.99,2.97      c-0.09,0.24-0.2,0.46-0.29,0.69c-0.86,2.25-1.8,4.47-2.78,6.66c-0.53,1.19-1.08,2.35-1.64,3.52c-1.02,2.14-2.06,4.28-3.19,6.36      c-0.63,1.15-1.33,2.26-1.98,3.39c-1.18,2.03-2.37,4.04-3.64,6c-0.73,1.12-1.5,2.2-2.26,3.29c-0.81,1.18-1.58,2.39-2.43,3.54      c0.5-1.27,0.89-2.59,1.35-3.88c0.38-1.08,0.77-2.15,1.13-3.24c0.7-2.14,1.33-4.31,1.93-6.49c0.25-0.92,0.49-1.83,0.72-2.76      c0.56-2.26,1.06-4.54,1.51-6.84c0.15-0.77,0.28-1.55,0.41-2.33c0.41-2.36,0.78-4.73,1.06-7.13c0.08-0.65,0.12-1.31,0.19-1.97      c0.21-2.08,0.48-4.14,0.59-6.26c0.02-0.38-0.01-0.74,0.01-1.11c0.02-0.56-0.01-1.1,0.01-1.66c0.08-2.53,0.1-5.04,0.04-7.54      c-0.01-0.48,0.02-0.97,0.01-1.45c-0.01-0.18,0.01-0.36,0-0.53c-0.1-2.39-0.42-4.72-0.64-7.08c-0.04-0.41-0.07-0.83-0.11-1.24      c-0.27-2.6-0.57-5.18-1-7.74c-0.06-0.37-0.15-0.73-0.21-1.1c-0.45-2.6-0.9-5.21-1.51-7.76c-0.08-0.35-0.12-0.71-0.21-1.06      c-0.63-2.57-1.48-5.06-2.27-7.57c-0.1-0.33-0.19-0.66-0.29-0.98c-0.82-2.55-1.71-5.06-2.67-7.54      c-0.12-0.32-0.26-0.63-0.39-0.95c-0.97-2.43-1.88-4.9-3-7.26c-0.38,3.89-1,7.69-1.65,11.49c-0.02,0.1-0.03,0.21-0.04,0.31      c-0.13,0.76-0.19,1.54-0.33,2.29c-0.57,3-1.36,5.92-2.09,8.86c-0.07,0.3-0.14,0.6-0.21,0.9c-0.33,1.29-0.56,2.61-0.92,3.88      c-0.51,1.82-1.17,3.57-1.75,5.37c-0.21,0.65-0.42,1.3-0.63,1.95c-0.82,2.45-1.67,4.88-2.61,7.27      c-0.37,0.95-0.78,1.87-1.17,2.81c-0.76,1.84-1.46,3.71-2.29,5.52c-0.06,0.13-0.1,0.27-0.16,0.39      c-0.48,1.04-1.06,2.03-1.56,3.06c-0.68,1.39-1.38,2.75-2.1,4.12c-0.66,1.26-1.25,2.57-1.94,3.8c-0.57,1.02-1.24,1.98-1.83,2.99      c-0.82,1.38-1.66,2.75-2.51,4.11c-0.43,0.67-0.81,1.37-1.25,2.04c-0.27,0.41-0.5,0.85-0.77,1.25      c-0.68,1.02-1.45,1.95-2.15,2.95c-0.33,0.46-0.67,0.91-1,1.38c-1.01,1.4-2,2.81-3.05,4.18c-0.24,0.31-0.45,0.63-0.69,0.94      c-0.31,0.4-0.58,0.83-0.9,1.23c-0.76,0.96-1.58,1.88-2.37,2.82c-0.19,0.22-0.37,0.45-0.56,0.67c-1.09,1.3-2.16,2.61-3.29,3.87      c-0.17,0.19-0.35,0.36-0.52,0.55c-1.11,1.22-2.25,2.41-3.39,3.6c-0.18,0.18-0.35,0.37-0.52,0.55c-0.48,0.49-0.93,1.01-1.41,1.5      c-0.62,0.63-1.29,1.21-1.92,1.82c-0.23,0.22-0.46,0.43-0.69,0.65c-0.26,0.25-0.53,0.5-0.79,0.75c-0.8,0.76-1.59,1.54-2.4,2.28      c-0.32,0.29-0.63,0.59-0.95,0.88c-1.01,0.91-2.08,1.75-3.12,2.63c-0.45,0.38-0.9,0.77-1.36,1.15c-0.77,0.63-1.5,1.3-2.28,1.92      c-0.18,0.14-0.37,0.27-0.56,0.41c-0.65,0.51-1.34,0.98-1.99,1.48c-0.85,0.65-1.72,1.29-2.58,1.92      c-0.92,0.68-1.81,1.39-2.75,2.04c-0.72,0.51-1.46,0.99-2.19,1.48c-1.28,0.87-2.6,1.69-3.91,2.52      c-0.55,0.35-1.09,0.72-1.65,1.06c-1.79,1.11-3.62,2.16-5.45,3.2c-0.3,0.17-0.61,0.33-0.91,0.5c-1.7,0.95-3.38,1.94-5.12,2.83      c-0.76,0.39-1.55,0.71-2.32,1.08c-0.06,0.03-0.12,0.06-0.18,0.09c-2.42,1.18-4.83,2.36-7.31,3.41      c-0.45,0.19-0.91,0.37-1.37,0.55c-0.59,0.24-1.18,0.48-1.78,0.72c-0.2,0.08-0.4,0.16-0.61,0.24c-0.27,0.13-0.52,0.3-0.78,0.44      c-2.36,1.2-4.58,2.62-6.6,4.31c-0.7,0.58-1.33,1.24-1.97,1.87l0,0c-0.01,0.01-0.01,0.02-0.02,0.02      c-0.54,0.53-1.08,1.05-1.59,1.61c-0.91,1.01-1.76,2.07-2.56,3.17c-0.79,1.11-1.53,2.26-2.19,3.47      c-1.42,2.6-2.52,5.39-3.26,8.35c-0.37,1.48-0.65,2.99-0.82,4.54c-0.08,0.73-0.19,1.44-0.23,2.18v0      c-0.12,2.24-0.02,4.45,0.27,6.6c0.14,1.01,0.46,1.95,0.68,2.93c0.41,1.81,0.93,3.57,1.61,5.27c1.3,3.25,2.96,6.33,5.12,9.04      c2.07,2.59,4.55,4.81,7.27,6.74c0.51,0.36,0.96,0.79,1.48,1.12c0.02,0.02,0.05,0.04,0.07,0.05c0.35,0.22,0.71,0.41,1.06,0.62      c2.37,1.37,4.94,2.41,7.62,3.21c0.55,0.16,1.07,0.39,1.63,0.53c2.11,0.52,4.29,0.87,6.54,0.98c0.48,0.03,0.93-0.05,1.4-0.05      c0.4,0,0.78-0.03,1.18-0.04c0.63-0.02,1.27-0.02,1.9-0.07c0.47-0.04,0.95,0,1.41-0.05c0.68-0.09,1.35-0.17,2.02-0.28      c4.59-0.72,9-1.96,13.31-3.43c0.47-0.16,0.94-0.34,1.41-0.51c5.69-2.06,11.08-4.71,16.11-7.95c0.6-0.39,1.18-0.79,1.77-1.19      c4.48-3.05,8.65-6.49,12.43-10.37c0.7-0.72,1.35-1.49,2.02-2.24c3.1-3.44,5.99-7.07,8.47-11.02c0.72-1.14,1.34-2.35,2-3.54      c1.1-1.96,2.23-3.89,3.17-5.95c-0.6,2.51-1.37,4.95-2.2,7.35c-0.46,1.32-0.99,2.6-1.51,3.89c-2.04,5.04-4.54,9.83-7.51,14.29      c-0.48,0.72-1,1.42-1.5,2.12c-3.71,5.22-7.99,9.98-12.81,14.16c-0.33,0.29-0.63,0.61-0.97,0.9c-4.46,3.74-9.3,7.02-14.49,9.74      c-1.16,0.61-2.37,1.12-3.56,1.67c-0.11,0.05-0.21,0.1-0.32,0.15c-2.89,1.32-5.84,2.54-8.89,3.51c3.17-0.29,6.29-0.73,9.4-1.24      c0.04-0.01,0.07-0.01,0.11-0.02c6.54-1.06,12.94-2.55,19.16-4.49c0.69-0.22,1.35-0.51,2.04-0.74c0.1-0.03,0.2-0.07,0.3-0.11      c6.67-2.22,13.16-4.87,19.35-8.04c0.18-0.09,0.37-0.18,0.55-0.28c5.88-3.03,11.46-6.55,16.82-10.36      c0.27-0.2,0.56-0.37,0.83-0.57c0.71-0.51,1.46-0.95,2.15-1.48c4.21-3.16,8.23-6.57,12.06-10.18c0.35-0.33,0.68-0.68,1.03-1.01      c4.07-3.91,7.89-8.07,11.46-12.45c0.22-0.27,0.44-0.53,0.66-0.8c0.18-0.23,0.37-0.45,0.55-0.67c2.03-2.56,3.98-5.18,5.83-7.88      c1.07-1.56,2.1-3.14,3.11-4.74c0.42-0.67,0.83-1.35,1.24-2.02c2.42-4,4.66-8.13,6.68-12.39c0.4-0.85,0.76-1.73,1.14-2.59      c0.17-0.39,0.34-0.77,0.51-1.16c1.53-3.5,2.95-7.06,4.2-10.7C512.31,454.66,512.62,453.61,512.95,452.57z"></path>					<path class="st0" d="M353.35,248.82c-1.4,2.3-2.81,4.59-4.31,6.82c-1.63,2.43-3.33,4.8-5.07,7.13c-1.11,1.49-2.19,3-3.36,4.45      c-1.68,2.1-3.49,4.1-5.27,6.12c-0.93,1.06-1.81,2.18-2.77,3.22c-1.74,1.88-3.57,3.66-5.39,5.46c-0.81,0.81-1.65,1.6-2.48,2.39      c-1.64,1.57-3.19,3.23-4.89,4.73c-0.17,0.15-0.35,0.28-0.52,0.42c-0.76,0.66-1.57,1.26-2.34,1.92      c-1.83,1.55-3.68,3.09-5.58,4.57c-0.63,0.49-1.21,1.03-1.85,1.51c-0.14,0.11-0.29,0.21-0.44,0.32      c-0.71,0.52-1.43,1.03-2.14,1.55c-1.18,0.89-2.31,1.84-3.46,2.76c-0.78,0.62-1.57,1.23-2.33,1.87      c-1.79,1.49-3.54,3.05-5.26,4.62c-0.77,0.7-1.56,1.38-2.32,2.09c-1.67,1.59-3.28,3.23-4.88,4.9c-0.76,0.79-1.51,1.6-2.26,2.41      c-1.54,1.67-3.06,3.35-4.52,5.08c-0.76,0.9-1.46,1.84-2.19,2.76c-1.39,1.74-2.77,3.49-4.09,5.29      c-0.75,1.02-1.46,2.06-2.18,3.09c-1.25,1.79-2.45,3.6-3.62,5.45c-0.73,1.15-1.47,2.31-2.17,3.48      c-1.09,1.82-2.12,3.68-3.13,5.56c-0.71,1.31-1.44,2.62-2.12,3.95c-0.93,1.84-1.8,3.71-2.65,5.59c-0.68,1.5-1.32,3.01-1.95,4.53      c-0.76,1.84-1.54,3.67-2.23,5.54c-0.63,1.7-1.18,3.45-1.75,5.18c-0.6,1.81-1.16,3.63-1.69,5.47c-0.56,1.95-1.13,3.89-1.61,5.87      c-0.43,1.76-0.77,3.55-1.14,5.33c-0.46,2.21-0.87,4.44-1.23,6.68c-0.27,1.69-0.55,3.37-0.76,5.08      c-0.32,2.51-0.54,5.05-0.74,7.6c-0.12,1.58-0.21,3.18-0.29,4.77c-0.1,2.29-0.21,4.57-0.21,6.88c0,0.58,0.05,1.14,0.06,1.72      c0.02,1.47,0.09,2.92,0.14,4.38c0.13,3.26,0.36,6.49,0.69,9.69c0.14,1.3,0.22,2.63,0.39,3.92c0.48,3.67,1.1,7.28,1.83,10.86      c0.23,1.13,0.52,2.23,0.77,3.35c0.3,1.29,0.57,2.6,0.9,3.88c0.11,0.44,0.19,0.89,0.31,1.33c0.34,1.28,0.71,2.54,1.08,3.81      c0.3,1.02,0.67,2.02,0.99,3.03c0.29,0.92,0.59,1.83,0.89,2.74c1.52,4.5,3.23,8.9,5.14,13.2c0.14,0.32,0.3,0.64,0.44,0.96      c0.17,0.37,0.34,0.74,0.51,1.11c1.59,3.43,3.28,6.79,5.11,10.07c0.29,0.51,0.54,1.05,0.83,1.55c0.5,0.87,1.1,1.65,1.61,2.51      c0.28,0.46,0.59,0.9,0.87,1.36c3.16,5.15,6.63,10.07,10.36,14.8c0.19,0.24,0.38,0.48,0.58,0.73c1.59,1.99,3.07,4.06,4.76,5.96      c2.8,3.17,5.79,6.16,8.84,9.09c0.05,0.05,0.09,0.1,0.14,0.14c9.26,8.84,19.64,16.47,30.88,22.78c1.91,1.16,3.88,2.26,5.94,3.28      c-5.84-3.99-11.29-8.51-16.26-13.5c-3.29-3.3-6.36-6.82-9.23-10.51c-2.12-2.73-4.08-5.59-5.95-8.51      c-0.18-0.29-0.35-0.59-0.53-0.88c-3.33-5.32-6.22-10.93-8.64-16.8c-0.29-0.7-0.57-1.4-0.84-2.1c-0.43-1.1-0.92-2.17-1.31-3.29      c-0.87-2.47-1.63-4.99-2.34-7.54c-0.08-0.3-0.19-0.59-0.28-0.89c-0.28-1.06-0.5-2.14-0.75-3.2c-0.26-1.12-0.56-2.23-0.79-3.36      c-0.22-1.09-0.38-2.21-0.57-3.31c-0.52-3.01-0.93-6.05-1.2-9.14c-0.14-1.53-0.22-3.07-0.29-4.61      c-0.06-1.27-0.15-2.53-0.17-3.81c-0.01-0.56-0.04-1.12-0.04-1.69c0-1.41,0.11-2.8,0.16-4.2c0.05-1.4,0.06-2.81,0.16-4.19      c0.03-0.47,0.1-0.93,0.14-1.4c0.21-2.4,0.46-4.78,0.82-7.13c0.33-2.16,0.76-4.28,1.21-6.4c0.35-1.64,0.73-3.26,1.15-4.87      c0.6-2.34,1.26-4.66,2.01-6.94c0.33-1,0.69-1.98,1.05-2.97c0.89-2.47,1.86-4.9,2.91-7.29c0.21-0.47,0.41-0.95,0.62-1.42      c1.16-2.54,2.41-5.03,3.75-7.46c0.04-0.07,0.07-0.13,0.11-0.2c1.28-2.31,2.63-4.56,4.06-6.76c0.16-0.24,0.3-0.5,0.46-0.74      c1.18-1.79,2.43-3.53,3.71-5.24c0.36-0.48,0.69-0.97,1.06-1.45c1.02-1.32,2.09-2.6,3.16-3.87c0.55-0.65,1.09-1.31,1.66-1.95      c0.84-0.95,1.69-1.88,2.55-2.8c0.74-0.78,1.49-1.54,2.25-2.29c0.65-0.65,1.27-1.34,1.94-1.98c0.91-0.86,1.87-1.67,2.8-2.5      c0.48-0.43,0.96-0.86,1.45-1.29c1.05-0.91,2.11-1.81,3.19-2.68c0.33-0.26,0.66-0.5,0.99-0.76c1.19-0.93,2.37-1.86,3.6-2.75      c0.18-0.13,0.34-0.27,0.52-0.4c1.32-0.94,2.69-1.79,4.05-2.67c0.04-0.03,0.09-0.06,0.13-0.09c1.36-0.88,2.71-1.75,4.11-2.57      c0.07-0.04,0.14-0.08,0.21-0.12c1.29-0.75,2.6-1.47,3.92-2.18c0.17-0.09,0.33-0.19,0.5-0.28c1.19-0.63,2.41-1.21,3.62-1.8      c0.26-0.12,0.52-0.24,0.77-0.36c1.11-0.52,2.21-1.06,3.34-1.55c0.32-0.14,0.63-0.31,0.96-0.45c0.02-0.01,0.04-0.02,0.07-0.03      c-0.02,0.02-0.04,0.03-0.05,0.05c-0.29,0.24-0.55,0.5-0.84,0.75c-0.89,0.77-1.76,1.55-2.63,2.34c-0.28,0.26-0.58,0.5-0.86,0.76      c-0.85,0.79-1.65,1.62-2.47,2.43c-0.27,0.27-0.55,0.53-0.81,0.81c-0.81,0.83-1.61,1.66-2.4,2.51      c-0.25,0.27-0.49,0.54-0.73,0.81c-0.8,0.88-1.6,1.75-2.38,2.65c-0.21,0.25-0.41,0.51-0.62,0.76c-0.8,0.95-1.59,1.91-2.36,2.89      c-0.17,0.21-0.35,0.41-0.51,0.63c-0.81,1.05-1.58,2.14-2.36,3.22c-0.12,0.16-0.24,0.32-0.35,0.48      c-0.84,1.18-1.64,2.37-2.43,3.58c-0.05,0.08-0.11,0.17-0.16,0.25c-0.86,1.32-1.69,2.65-2.5,4c-0.01,0.02-0.02,0.04-0.04,0.06      c-0.81,1.36-1.61,2.73-2.36,4.13c-0.09,0.16-0.16,0.33-0.25,0.49c-0.69,1.31-1.37,2.63-2.02,3.96      c-0.16,0.34-0.32,0.68-0.48,1.02c-0.57,1.23-1.11,2.47-1.65,3.72c-0.24,0.57-0.5,1.13-0.73,1.7c-0.45,1.11-0.86,2.24-1.28,3.37      c-0.32,0.86-0.64,1.7-0.94,2.57c-0.33,0.95-0.62,1.93-0.92,2.89c-0.38,1.22-0.75,2.44-1.09,3.67      c-0.21,0.75-0.39,1.51-0.58,2.26c-0.42,1.67-0.81,3.35-1.15,5.05c-0.1,0.48-0.19,0.96-0.29,1.44c-0.43,2.24-0.79,4.5-1.09,6.78      c-0.02,0.13-0.04,0.26-0.05,0.39c-0.33,2.63-0.59,5.29-0.73,7.97c-0.02,0.32-0.01,0.64-0.03,0.96      c-0.08,1.74-0.15,3.48-0.15,5.23c0,0.42,0.04,0.82,0.05,1.24c0.01,0.49,0.04,0.98,0.05,1.47c0.02,0.88,0.05,1.76,0.1,2.63      c0.13,2.48,0.33,4.94,0.61,7.37c0.11,0.96,0.18,1.93,0.31,2.88c0,0,0,0,0,0c0,0.02,0.01,0.05,0.01,0.07c0,0.01,0,0.02,0,0.03      c0,0,0,0,0,0c0.08,0.57,0.22,1.12,0.31,1.68c0.35,2.22,0.73,4.43,1.2,6.61c0.34,1.55,0.76,3.07,1.16,4.6      c0.21,0.79,0.41,1.58,0.63,2.37c0.53,1.88,1.11,3.73,1.74,5.56c0.38,1.1,0.76,2.2,1.17,3.28c0.79,2.09,1.65,4.15,2.55,6.18      c0.65,1.46,1.26,2.95,1.97,4.39c0.01,0.03,0.02,0.06,0.04,0.08c0-0.05,0.01-0.1,0.01-0.14c0.03-2.85,0.31-5.63,0.77-8.36      c0.27-1.65,0.69-3.25,1.11-4.84c1.07-4.05,2.59-7.88,4.5-11.5c0.5-0.94,1-1.89,1.56-2.8c4.68-7.69,11.2-14.07,18.97-18.64      c1.34-0.79,2.64-1.62,4.05-2.29c0,0,0,0,0,0c1.42-0.68,2.8-1.44,4.2-2.16c0.73-0.38,1.47-0.74,2.19-1.13      c1.85-0.98,3.66-2.01,5.47-3.06c0.46-0.27,0.92-0.53,1.37-0.8c1.38-0.82,2.76-1.62,4.11-2.47c0.24-0.15,0.47-0.32,0.71-0.47      c1.2-0.76,2.37-1.56,3.55-2.35c0.88-0.59,1.79-1.15,2.66-1.76c0.02-0.01,0.04-0.03,0.07-0.04c0.73-0.51,1.42-1.07,2.14-1.59      c0.59-0.43,1.17-0.87,1.76-1.31c0.04-0.03,0.08-0.06,0.12-0.09c0.46-0.34,0.92-0.68,1.38-1.03c0.43-0.32,0.87-0.63,1.29-0.96      c0.01-0.01,0.03-0.02,0.04-0.03c0.4-0.31,0.8-0.61,1.2-0.93c0.27-0.21,0.52-0.44,0.79-0.66c0.1-0.08,0.2-0.17,0.3-0.25      c0.36-0.29,0.7-0.59,1.05-0.87c0.11-0.09,0.21-0.18,0.32-0.27c0.25-0.2,0.49-0.41,0.73-0.61c0.25-0.21,0.5-0.41,0.74-0.62      c0.15-0.13,0.31-0.25,0.46-0.38c0.3-0.26,0.62-0.5,0.92-0.76c0.11-0.1,0.23-0.18,0.34-0.28c0.33-0.28,0.68-0.55,1-0.83      c0.05-0.05,0.11-0.09,0.16-0.14c0.39-0.34,0.75-0.71,1.13-1.05c0.09-0.08,0.17-0.16,0.26-0.24c0.36-0.32,0.7-0.65,1.06-0.98      c0.21-0.19,0.42-0.39,0.63-0.58c0.25-0.23,0.5-0.46,0.75-0.69c0.47-0.44,0.96-0.87,1.43-1.32c0.02-0.02,0.03-0.03,0.05-0.04      c0.53-0.51,1.09-0.98,1.61-1.5c0.38-0.37,0.73-0.77,1.11-1.15c0.19-0.18,0.36-0.38,0.55-0.56c0.63-0.64,1.25-1.29,1.87-1.93      c0.4-0.42,0.82-0.83,1.22-1.26c0.31-0.33,0.64-0.65,0.95-0.98c0.81-0.87,1.59-1.76,2.38-2.65c0.54-0.6,1.06-1.22,1.59-1.83      c0.39-0.45,0.79-0.9,1.17-1.35c1.09-1.28,2.16-2.57,3.21-3.88c0.74-0.93,1.47-1.87,2.19-2.81c0.51-0.67,1.05-1.32,1.56-2      c1.45-1.95,2.83-3.94,4.2-5.95c0.77-1.14,1.56-2.27,2.31-3.42c0.86-1.32,1.66-2.68,2.48-4.02c1.84-3.02,3.6-6.1,5.25-9.24      c0.25-0.48,0.53-0.94,0.77-1.42c1.66-3.22,3.22-6.51,4.68-9.84c1.11-2.54,2.16-5.11,3.15-7.71c0.69-1.82,1.31-3.68,1.94-5.53      c1.48-4.33,2.85-8.7,3.98-13.17l0,0c0.08-0.31,0.14-0.64,0.22-0.95c0.1-0.4,0.18-0.81,0.28-1.21      c1.05-4.41,1.97-8.87,2.68-13.41c0.18-1.17,0.29-2.37,0.44-3.54c0.12-0.93,0.24-1.86,0.35-2.79c0.5-4.3,0.9-8.64,1.08-13.03      c0.04-0.86,0.04-1.73,0.07-2.6c0.05-1.56,0.12-3.11,0.12-4.69c0-0.57-0.04-1.12-0.04-1.69c-0.05-4.38-0.26-8.72-0.63-13.02      c-0.04-0.43-0.05-0.86-0.09-1.29c-0.24-2.65-0.61-5.26-0.96-7.87c-0.14-0.99-0.21-2-0.36-2.99c-0.33-2.14-0.76-4.25-1.18-6.36      c-0.09-0.47-0.17-0.95-0.26-1.42c-0.08-0.41-0.14-0.84-0.23-1.25c-0.72-3.41-1.58-6.76-2.5-10.09      c-0.8-2.89-1.68-5.75-2.62-8.58c-1.45-4.35-3.04-8.63-4.82-12.81c-0.97-2.27-1.97-4.53-3.03-6.75c-2.2-4.61-4.61-9.1-7.2-13.48      c-1.02-1.73-2.1-3.43-3.18-5.12c-3.01-4.7-6.22-9.25-9.66-13.62c-1.01-1.29-2.05-2.55-3.1-3.81      c-3.82-4.59-7.87-8.98-12.14-13.15c-0.94-0.92-1.89-1.85-2.85-2.75c-4.61-4.3-9.47-8.34-14.54-12.12      c-0.83-0.62-1.65-1.27-2.5-1.87c-0.16-0.12-0.31-0.24-0.47-0.35c0.08,2.15,0.16,4.31,0.16,6.48c0,13.13-1.52,25.9-4.3,38.19      c-1.48,6.53-3.37,12.89-5.56,19.11c-1.34,3.82-2.79,7.58-4.39,11.27c-1.59,3.67-3.28,7.28-5.11,10.81      c-0.25,0.47-0.55,0.91-0.8,1.38c-1.37,2.57-2.88,5.05-4.37,7.54C353.67,248.27,353.51,248.55,353.35,248.82z"></path>					<path class="st0" d="M284.54,509.17c-21.43-44.05-15.86-111.03,36.05-156.74c29.34-25.83,85.31-83.37,57.61-199.21      c0.08,2.15,0.16,4.31,0.16,6.48c0,13.13-1.52,25.9-4.3,38.19c-3.28,14.51-8.38,28.32-15.07,41.18      c-9.89,19.05-23.22,36.01-39.19,50.07c-3.32,2.93-6.74,5.75-10.28,8.42c-0.85,0.64-1.72,1.24-2.58,1.87      c-36.92,27.82-60.79,72.02-60.79,121.81c0,13.53,1.78,26.64,5.09,39.13c0.34,1.28,0.71,2.54,1.08,3.81      c3.37,11.51,8.07,22.46,13.91,32.66c5.2,9.08,11.29,17.57,18.18,25.36c12.82,14.49,28.35,26.51,45.8,35.29      C304.41,544.74,289.65,519.68,284.54,509.17z"></path>					<path class="st0" d="M433.62,436.46c14.64-18.83,29.41-48.68,30.81-97.28c-0.93,9.53-2.72,18.79-5.25,27.72      c-4.55,16.11-11.54,31.14-20.56,44.68c-2.45,3.68-5.05,7.23-7.79,10.68c-7.54,9.5-16.12,18.11-25.58,25.65      c-11.2,8.93-23.6,16.37-36.91,22.03c-1.24,0.53-2.5,1.02-3.75,1.51c-10.64,5.09-18.37,15.4-19.79,27.77      c-0.08,0.73-0.19,1.44-0.23,2.18c-0.48,8.98,2.48,17.32,7.67,23.84c2.47,3.1,5.44,5.79,8.82,7.91      c0.35,0.22,0.71,0.41,1.06,0.62c2.85,1.65,5.95,2.93,9.25,3.73c2.11,0.52,4.29,0.87,6.54,0.99c2,0.11,3.96,0,5.89-0.22      c0.68-0.09,1.35-0.17,2.02-0.28c-4.16-5.9-8.99-14.78-9.23-25.69C375.97,482.59,410.09,466.74,433.62,436.46z"></path>				</g>				<g>					<path class="st0" d="M146.4,482.98c-0.55-1.1-0.64-2.23-0.25-3.38c0.38-1.15,1.14-2.01,2.27-2.58c1.13-0.57,2.27-0.65,3.4-0.26      c1.14,0.39,1.98,1.14,2.54,2.24c0.57,1.13,0.67,2.27,0.3,3.42c-0.37,1.15-1.12,2-2.25,2.57c-1.13,0.57-2.27,0.66-3.43,0.27      C147.83,484.87,146.97,484.11,146.4,482.98z"></path>					<path class="st0" d="M149.98,448.09l-31.61,9.74l-6.46-20.97l6.4-2.84l4.1,13.3l5.76-1.78l-3-9.72l6.4-2.84l3.24,10.51      l5.9-1.82l-4.28-13.9l6.4-2.84L149.98,448.09z"></path>					<path class="st0" d="M137.46,394.04l-15.84,2.3l6.61,3.56l0.99,3.44l-5.68,6.23l15.84-2.3l1.27,8.76l-32.73,4.76l-0.88-6.02      l11.03-11.68l-13.78-7.24l-0.85-5.82l32.73-4.76L137.46,394.04z"></path>					<path class="st0" d="M135.67,373.75l-33.07-0.54l0.23-13.91c0.06-3.66,1.1-6.83,3.12-9.51c2.02-2.67,5.03-3.98,9.02-3.92      c3.96,0.06,6.84,1.56,8.66,4.47c1.82,2.92,2.7,6.16,2.64,9.73l-0.08,4.67l9.63,0.16L135.67,373.75z M109.77,359.7l-0.08,4.77      l9.53,0.15l0.08-4.86c0.02-1.36-0.4-2.49-1.26-3.38c-0.86-0.89-1.94-1.35-3.24-1.37c-1.46-0.02-2.66,0.38-3.6,1.21      C110.28,357.05,109.8,358.21,109.77,359.7z"></path>					<path class="st0" d="M137.08,336.61l-32.6-5.59l2.35-13.71c0.62-3.61,2.03-6.6,4.23-8.97c2.2-2.37,5.27-3.22,9.2-2.54      c1.98,0.34,3.62,1.04,4.92,2.1c1.3,1.06,2.28,2.33,2.95,3.79l14.08-4.99l-1.73,10.12l-11.16,3.52l-0.99,5.8l10.26,1.76      L137.08,336.61z M113.63,318.77l-0.81,4.7l8.63,1.48l0.82-4.79c0.23-1.34,0.01-2.51-0.66-3.52c-0.67-1-1.64-1.61-2.92-1.83      c-1.44-0.25-2.58-0.01-3.43,0.7C114.43,316.21,113.88,317.3,113.63,318.77z"></path>					<path class="st0" d="M144.72,298.32l-31.42-10.33l6.85-20.84l6.87,1.39l-4.35,13.22l5.73,1.88l3.17-9.66l6.87,1.39l-3.43,10.44      l5.87,1.93l4.54-13.82l6.87,1.39L144.72,298.32z"></path>					<path class="st0" d="M155.69,266.82l-29.5-14.97l3.72-7.33l21.77-3.24l-16.01-8.12l4.01-7.89l29.5,14.97l-3.74,7.37      l-21.28,3.44l15.53,7.88L155.69,266.82z"></path>					<path class="st0" d="M175.28,230.45l-26.66-19.58l8.58-11.69c3.01-4.1,6.55-6.31,10.62-6.62c4.07-0.31,8,0.93,11.79,3.71      c4.16,3.05,6.57,6.65,7.24,10.81c0.67,4.15-0.37,8.1-3.11,11.84L175.28,230.45z M162.55,203.66l-3.08,4.2l15.45,11.34      l2.88-3.92c1.21-1.65,1.57-3.51,1.09-5.6c-0.48-2.08-2.04-4.09-4.68-6.03c-2.2-1.61-4.36-2.46-6.48-2.56      C165.6,201,163.87,201.86,162.55,203.66z"></path>					<path class="st0" d="M199.68,199.06l-23.51-23.27l15.43-15.59l5.53,4.3l-9.79,9.89l4.29,4.24l7.15-7.23l5.53,4.31l-7.73,7.81      l4.39,4.35l10.23-10.34l5.53,4.3L199.68,199.06z"></path>					<path class="st0" d="M223.66,175.75l-19.89-26.43l11.12-8.36c2.93-2.2,6.01-3.41,9.23-3.63c3.23-0.22,6.04,1.27,8.44,4.46      c1.21,1.61,1.92,3.24,2.14,4.9c0.22,1.66,0.07,3.26-0.45,4.78l13.67,6.03l-8.2,6.17l-10.54-5.1l-4.7,3.54l6.26,8.32      L223.66,175.75z M218.84,146.68l-3.81,2.87l5.26,7l3.89-2.92c1.09-0.82,1.73-1.82,1.94-3.01c0.2-1.19-0.09-2.3-0.87-3.34      c-0.88-1.17-1.87-1.78-2.97-1.84C221.18,145.37,220.03,145.79,218.84,146.68z"></path>					<path class="st0" d="M263.51,129.21c1.1-0.56,2.23-0.65,3.38-0.27c1.16,0.38,2.02,1.13,2.59,2.26c0.57,1.13,0.67,2.26,0.28,3.4      c-0.38,1.14-1.13,1.99-2.22,2.55c-1.13,0.57-2.27,0.68-3.41,0.32c-1.15-0.36-2.01-1.11-2.58-2.24      c-0.57-1.13-0.67-2.27-0.29-3.42C261.62,130.64,262.38,129.78,263.51,129.21z"></path>					<path class="st0" d="M310.49,102.54c-1.86-0.06-3.24-0.03-4.16,0.07c-0.92,0.11-1.9,0.32-2.96,0.66      c-1.89,0.6-3.18,1.97-3.9,4.12c-0.71,2.15-0.61,4.66,0.3,7.54c0.94,2.97,2.34,5.06,4.19,6.28c1.85,1.22,3.76,1.51,5.74,0.88      c1.14-0.36,2.17-0.87,3.09-1.52c0.92-0.65,1.7-1.35,2.35-2.1l5.2,5.29c-1,1.13-2.3,2.17-3.88,3.12      c-1.59,0.95-3.19,1.67-4.79,2.18c-5.13,1.63-9.47,1.34-13.01-0.87c-3.54-2.21-6.07-5.7-7.58-10.46      c-1.54-4.85-1.42-9.25,0.35-13.2c1.78-3.95,5-6.66,9.66-8.15c1.58-0.5,3.28-0.79,5.11-0.88c1.83-0.09,3.49,0.09,4.99,0.53      L310.49,102.54z"></path>					<path class="st0" d="M325.16,107.44c-0.8-5.03-0.04-9.37,2.3-13.03c2.34-3.66,5.96-5.88,10.86-6.66      c5.32-0.85,9.56,0.15,12.74,2.99c3.18,2.84,5.14,6.6,5.89,11.27c0.81,5.06,0.06,9.42-2.25,13.07      c-2.31,3.65-5.96,5.88-10.95,6.68c-5.22,0.83-9.44-0.17-12.65-3.03C327.89,115.88,325.91,112.11,325.16,107.44z M334.13,105.95      c0.44,2.75,1.33,4.96,2.68,6.62c1.35,1.66,3.26,2.29,5.72,1.89c2.24-0.36,3.84-1.46,4.79-3.3c0.95-1.84,1.17-4.41,0.64-7.71      c-0.44-2.72-1.33-4.9-2.7-6.54c-1.36-1.64-3.26-2.26-5.69-1.87c-2.18,0.35-3.75,1.52-4.71,3.51      C333.91,100.54,333.66,103.01,334.13,105.95z"></path>					<path class="st0" d="M390.69,118.09l0.26-16l-4.57,5.96l-3.56,0.43l-5.24-6.6l-0.26,16l-8.85-0.14L369,84.66l6.08,0.1      l9.77,12.76l9.35-12.45l5.88,0.1l-0.54,33.07L390.69,118.09z"></path>					<path class="st0" d="M409.98,119.13l5.31-32.65l13.73,2.23c3.62,0.59,6.6,2.08,8.96,4.46c2.35,2.39,3.21,5.55,2.57,9.49      c-0.64,3.91-2.53,6.55-5.68,7.92c-3.15,1.38-6.48,1.78-10,1.21l-4.61-0.75l-1.55,9.51L409.98,119.13z M427.62,95.54l-4.71-0.77      l-1.53,9.41l4.8,0.78c1.34,0.22,2.52-0.03,3.52-0.76c1-0.72,1.61-1.73,1.82-3.01c0.23-1.44,0.01-2.68-0.67-3.73      C430.17,96.42,429.09,95.78,427.62,95.54z"></path>					<path class="st0" d="M445.53,125.8l9.81-31.59l20.95,6.51l-1.27,6.89l-13.29-4.13l-1.79,5.76l9.71,3.02l-1.27,6.89l-10.5-3.26      l-1.83,5.9l13.89,4.31l-1.27,6.89L445.53,125.8z"></path>					<path class="st0" d="M482.43,138.92l11.04-23.68l-8.82-4.11l2.94-6.3l25.66,11.96l-2.19,6.65l-9.57-4.46l-11.04,23.67      L482.43,138.92z"></path>					<path class="st0" d="M506.7,151.32l17.15-28.28l7.57,4.59l-17.15,28.28L506.7,151.32z"></path>					<path class="st0" d="M523.41,161.55l20.32-26.1l10.98,8.55c2.89,2.25,4.86,4.91,5.91,7.96c1.05,3.06,0.35,6.16-2.1,9.31      c-1.24,1.59-2.63,2.7-4.18,3.35c-1.55,0.64-3.13,0.92-4.73,0.82l-2.25,14.77l-8.1-6.3l2.17-11.5l-4.64-3.62l-6.39,8.21      L523.41,161.55z M550.2,149.31l-3.76-2.93l-5.38,6.91l3.84,2.99c1.07,0.84,2.21,1.2,3.41,1.08c1.2-0.11,2.2-0.68,2.99-1.71      c0.9-1.15,1.23-2.27,1-3.35C552.08,151.22,551.38,150.22,550.2,149.31z"></path>					<path class="st0" d="M577.19,186.14c0.83,0.91,1.23,1.97,1.18,3.18c-0.05,1.21-0.54,2.25-1.47,3.11c-0.93,0.86-2,1.25-3.2,1.19      c-1.2-0.06-2.22-0.55-3.05-1.45c-0.86-0.93-1.27-2-1.23-3.2c0.04-1.2,0.52-2.23,1.45-3.09c0.93-0.86,2-1.26,3.22-1.21      C575.3,184.71,576.33,185.21,577.19,186.14z"></path>					<path class="st0" d="M582.12,219.21l27.02-19.08l5.11,7.23l-27.02,19.08L582.12,219.21z"></path>					<path class="st0" d="M593.4,235.22l29.13-15.67l3.89,7.24l-9.77,19.73l15.81-8.5l4.19,7.8l-29.13,15.67l-3.92-7.28l9.32-19.43      l-15.34,8.25L593.4,235.22z"></path>					<path class="st0" d="M611.69,271l31.29-10.72l2.67,7.78l-12.85,17.87l16.98-5.82l2.87,8.38l-31.29,10.72l-2.68-7.82      l12.36-17.65l-16.47,5.64L611.69,271z"></path>					<path class="st0" d="M639.81,305.13c5.02-0.85,9.37-0.12,13.05,2.19c3.68,2.31,5.93,5.91,6.75,10.8      c0.89,5.31-0.06,9.56-2.88,12.77c-2.81,3.2-6.56,5.2-11.22,5.99c-5.05,0.85-9.42,0.14-13.09-2.13      c-3.67-2.28-5.93-5.91-6.77-10.9c-0.88-5.21,0.09-9.44,2.92-12.68C631.39,307.93,635.14,305.91,639.81,305.13z M641.37,314.09      c-2.75,0.46-4.95,1.38-6.59,2.74c-1.65,1.36-2.26,3.27-1.84,5.74c0.38,2.24,1.49,3.83,3.34,4.76c1.85,0.94,4.42,1.13,7.72,0.57      c2.72-0.46,4.89-1.38,6.52-2.75c1.63-1.38,2.23-3.28,1.82-5.71c-0.37-2.17-1.55-3.73-3.55-4.68      C646.78,313.82,644.31,313.59,641.37,314.09z"></path>					<path class="st0" d="M629.68,358.15l32-12.88l1.02,8.69l-22.39,8.54l22.65,7.56l0.14,8.8L629.82,367L629.68,358.15z"></path>					<path class="st0" d="M659.28,409.79l-33.64,7.6l0.39-8.74l6.79-1.42l1.64-11.31l-6.12-3.2l1.27-8.71l30.95,17.03L659.28,409.79      z M649.44,403.74l-8.45-4.42l-0.93,6.4L649.44,403.74z"></path>					<path class="st0" d="M622.88,424.57l31.61,9.74l-4.1,13.3c-1.08,3.5-2.86,6.29-5.35,8.35c-2.49,2.07-5.64,2.51-9.45,1.34      c-1.92-0.59-3.46-1.5-4.61-2.72c-1.15-1.22-1.96-2.6-2.44-4.14l-14.61,3.13l3.02-9.81l11.52-2.05l1.73-5.63l-9.95-3.07      L622.88,424.57z M643.83,445.28l1.4-4.56l-8.37-2.58l-1.43,4.65c-0.4,1.3-0.34,2.49,0.2,3.57c0.53,1.08,1.42,1.81,2.66,2.19      c1.4,0.43,2.56,0.35,3.49-0.25C642.71,447.72,643.39,446.71,643.83,445.28z"></path>					<path class="st0" d="M618.9,483.58c-0.55,1.1-1.41,1.84-2.56,2.22c-1.15,0.38-2.3,0.29-3.43-0.28      c-1.13-0.57-1.88-1.43-2.24-2.57c-0.37-1.15-0.27-2.27,0.28-3.37c0.57-1.13,1.42-1.89,2.56-2.28c1.14-0.39,2.27-0.3,3.4,0.27      c1.13,0.57,1.88,1.43,2.26,2.59C619.57,481.31,619.47,482.45,618.9,483.58z"></path>				</g>			</g>		</g>	</g></g></svg>