<svg width="40" height="32" viewBox="0 0 40 32" fill="none" xmlns="http://www.w3.org/2000/svg">
<path d="M3.01213 25.0991H37.3582V27.7411H3.01213V25.0991ZM5.65413 29.0621H34.7162V31.7041H5.65413V29.0621ZM38.6792 9.24703C36.5779 9.24462 34.5632 8.40879 33.0773 6.92289C31.5914 5.437 30.7556 3.42238 30.7532 1.321V0H9.61715V1.321C9.61474 3.42238 8.77891 5.437 7.29301 6.92289C5.80712 8.40879 3.7925 9.24462 1.69112 9.24703H0.370117V14.531H1.69112C3.7925 14.5334 5.80712 15.3693 7.29301 16.8552C8.77891 18.3411 9.61474 20.3557 9.61715 22.4571V23.7781H30.7532V22.4571C30.7556 20.3557 31.5914 18.3411 33.0773 16.8552C34.5632 15.3693 36.5779 14.5334 38.6792 14.531H40.0002V9.24703H38.6792ZM20.1852 19.8151C18.6176 19.8151 17.0851 19.3502 15.7817 18.4793C14.4783 17.6084 13.4624 16.3705 12.8625 14.9222C12.2626 13.4739 12.1056 11.8802 12.4115 10.3427C12.7173 8.80525 13.4722 7.39297 14.5806 6.28449C15.6891 5.17602 17.1014 4.42114 18.6389 4.11531C20.1764 3.80948 21.77 3.96644 23.2183 4.56634C24.6666 5.16625 25.9045 6.18214 26.7754 7.48557C27.6463 8.789 28.1112 10.3214 28.1112 11.889C28.1088 13.9904 27.273 16.005 25.7871 17.4909C24.3012 18.9768 22.2866 19.8127 20.1852 19.8151Z" fill="white"/>
<path d="M6.66667 1.33333V0H0V6.66667H1.33333C2.74735 6.66512 4.103 6.10272 5.10286 5.10286C6.10272 4.103 6.66512 2.74735 6.66667 1.33333ZM1.33333 17.3333H0V24H6.66667V22.6667C6.66512 21.2527 6.10272 19.897 5.10286 18.8971C4.103 17.8973 2.74735 17.3349 1.33333 17.3333ZM38.6667 6.66667H40V0H33.3333V1.33333C33.3349 2.74735 33.8973 4.103 34.8971 5.10286C35.897 6.10272 37.2527 6.66512 38.6667 6.66667ZM33.3333 22.6667V24H40V17.3333H38.6667C37.2527 17.3349 35.897 17.8973 34.8971 18.8971C33.8973 19.897 33.3349 21.2527 33.3333 22.6667Z" fill="white"/>
<path d="M20 17C22.7614 17 25 14.7614 25 12C25 9.23858 22.7614 7 20 7C17.2386 7 15 9.23858 15 12C15 14.7614 17.2386 17 20 17Z" fill="white"/>
</svg>
