<svg width="40" height="34" viewBox="0 0 40 34" fill="none" xmlns="http://www.w3.org/2000/svg">
<path d="M0 28.0097C0 29.4151 0.526784 30.763 1.46447 31.7568C2.40215 32.7505 3.67392 33.3088 5 33.3088H35C36.3261 33.3088 37.5979 32.7505 38.5355 31.7568C39.4732 30.763 40 29.4151 40 28.0097V13.4371H0V28.0097ZM5.89286 20.818C5.89286 20.0651 6.17506 19.3431 6.67739 18.8107C7.17972 18.2783 7.86103 17.9792 8.57143 17.9792H12.8571C13.5675 17.9792 14.2488 18.2783 14.7512 18.8107C15.2535 19.3431 15.5357 20.0651 15.5357 20.818V22.7106C15.5357 23.4635 15.2535 24.1855 14.7512 24.7179C14.2488 25.2503 13.5675 25.5494 12.8571 25.5494H8.57143C7.86103 25.5494 7.17972 25.2503 6.67739 24.7179C6.17506 24.1855 5.89286 23.4635 5.89286 22.7106V20.818ZM35 0H5C3.67392 0 2.40215 0.5583 1.46447 1.55208C0.526784 2.54586 0 3.89372 0 5.29913V7.75945H40V5.29913C40 3.89372 39.4732 2.54586 38.5355 1.55208C37.5979 0.5583 36.3261 0 35 0Z" fill="white"/>
</svg>
