<svg width="40" height="40" viewBox="0 0 40 40" fill="none" xmlns="http://www.w3.org/2000/svg">
<path d="M38.6668 36.7411H37.6668C37.5784 36.7411 37.4936 36.7039 37.4311 36.6376C37.3686 36.5714 37.3335 36.4815 37.3335 36.3878V21.3302C37.3342 21.2739 37.3223 21.2184 37.2987 21.168C37.2751 21.1177 37.2406 21.074 37.1979 21.0407C37.1551 21.0073 37.1056 20.9853 37.0532 20.9763C37.0008 20.9674 36.9472 20.9718 36.8968 20.9892C36.1321 21.2439 35.338 21.386 34.5368 21.4114C34.4384 21.4114 34.3451 21.4158 34.2534 21.4158C32.7123 21.4197 31.196 21.0049 29.8492 20.2111C29.7472 20.151 29.6325 20.1195 29.5159 20.1195C29.3992 20.1195 29.2845 20.151 29.1825 20.2111C27.836 21.0049 26.32 21.4197 24.7791 21.4158C23.247 21.4181 21.7405 20.9984 20.4074 20.1979C20.3046 20.1362 20.1885 20.1038 20.0703 20.1038C19.9522 20.1038 19.8361 20.1362 19.7332 20.1979C18.3801 21.0014 16.8542 21.4212 15.3032 21.4167C13.7607 21.4178 12.2448 20.9915 10.9056 20.1802C10.802 20.1177 10.6849 20.0849 10.5656 20.0849C10.4464 20.0849 10.3293 20.1177 10.2256 20.1802C8.88652 20.9915 7.37056 21.4178 5.82809 21.4167C5.73725 21.4167 5.64558 21.4167 5.54725 21.4123H5.54225C4.7129 21.3859 3.89131 21.2345 3.10222 20.9627C3.05225 20.9456 2.99917 20.9413 2.94731 20.95C2.89544 20.9588 2.84627 20.9804 2.80378 21.0131C2.7613 21.0458 2.72671 21.0887 2.70283 21.1383C2.67895 21.1879 2.66646 21.2427 2.66638 21.2984V36.3878C2.66638 36.4815 2.63126 36.5714 2.56875 36.6376C2.50624 36.7039 2.42145 36.7411 2.33304 36.7411H1.3747C0.654692 36.7411 0.0330178 37.3275 0.00135077 38.0906C-0.00675477 38.2813 0.0216823 38.4718 0.0849459 38.6505C0.148209 38.8293 0.244988 38.9926 0.36944 39.1306C0.493892 39.2686 0.643437 39.3784 0.80905 39.4535C0.974663 39.5286 1.15291 39.5673 1.33303 39.5673H38.6251C39.3451 39.5673 39.9668 38.9809 39.9985 38.2178C40.0066 38.0271 39.9782 37.8366 39.9149 37.6579C39.8516 37.4792 39.7549 37.3159 39.6304 37.1779C39.5059 37.0398 39.3564 36.93 39.1908 36.8549C39.0252 36.7799 38.8469 36.7411 38.6668 36.7411ZM17.3332 30.7353C17.3332 30.829 17.2981 30.9189 17.2356 30.9851C17.1731 31.0514 17.0883 31.0886 16.9999 31.0886H9.66646C9.57806 31.0886 9.49327 31.0514 9.43076 30.9851C9.36825 30.9189 9.33313 30.829 9.33313 30.7353V25.0829C9.33313 24.8018 9.43849 24.5322 9.62602 24.3334C9.81356 24.1347 10.0679 24.023 10.3331 24.023H16.3332C16.5984 24.023 16.8528 24.1347 17.0403 24.3334C17.2279 24.5322 17.3332 24.8018 17.3332 25.0829V30.7353ZM30.3334 36.7411H24.3333C24.2449 36.7411 24.1601 36.7039 24.0976 36.6376C24.0351 36.5714 24 36.4815 24 36.3878V25.0829C24 24.8018 24.1053 24.5322 24.2929 24.3334C24.4804 24.1347 24.7348 24.023 25 24.023H29.6667C29.9319 24.023 30.1863 24.1347 30.3738 24.3334C30.5614 24.5322 30.6667 24.8018 30.6667 25.0829V36.3878C30.6667 36.4815 30.6316 36.5714 30.5691 36.6376C30.5066 36.7039 30.4218 36.7411 30.3334 36.7411ZM39.7143 12.2129L36.1376 3.51425C35.2009 1.37956 33.0617 0 30.6875 0H9.30813C6.93393 0 4.79474 1.37956 3.85806 3.51425L0.281354 12.2129C-0.468655 13.9272 0.52219 15.6874 0.523024 15.6883L0.546357 15.728C0.587191 15.7969 0.659692 15.9047 0.703859 15.9735C0.708026 15.9788 0.711359 15.985 0.715526 15.9912L1.1322 16.5255C1.14778 16.5457 1.16447 16.5649 1.1822 16.583L1.59887 17.0095L1.63387 17.0413C1.87857 17.2636 2.14031 17.4639 2.41638 17.6401V17.6446C3.32331 18.2268 4.35659 18.5514 5.41641 18.5869H5.62225C7.22583 18.5901 8.77097 17.9491 9.94647 16.7932L9.97397 16.7658C10.0967 16.6432 10.259 16.5749 10.4277 16.5749C10.5964 16.5749 10.7587 16.6432 10.8815 16.7658L10.909 16.7932C12.097 17.9472 13.65 18.5874 15.2615 18.5874C16.8731 18.5874 18.4261 17.9472 19.6141 16.7932C19.7373 16.6722 19.8991 16.6051 20.067 16.6051C20.2349 16.6051 20.3967 16.6722 20.5199 16.7932C21.7044 17.9435 23.2517 18.5834 24.8583 18.5871C26.465 18.5909 28.0149 17.9583 29.2042 16.8135C29.3256 16.6943 29.485 16.6281 29.6504 16.6281C29.8159 16.6281 29.9753 16.6943 30.0967 16.8135C31.2872 17.9653 32.844 18.5986 34.4559 18.5869H34.6634C35.6966 18.5461 36.702 18.2203 37.5801 17.6419C37.6593 17.5916 37.7351 17.5386 37.8118 17.4856C38.4041 17.0624 38.9195 16.5296 39.3335 15.9126L39.4785 15.6803C39.4929 15.6568 39.5063 15.632 39.5185 15.6061C39.6568 15.3076 40.3985 13.7726 39.7143 12.2129Z" fill="white"/>
</svg>
